<svg width="136" height="23" viewBox="0 0 136 23" fill="none" xmlns="http://www.w3.org/2000/svg">
<path d="M27.425 4.00711V22.3365H23V4.00711H27.425ZM34.5606 11.6359V15.0349H26.1643V11.6359H34.5606ZM35.2792 4.00711V7.41868H26.1643V4.00711H35.2792Z" fill="white"/>
<path d="M36.1112 15.6644V15.4C36.1112 14.4013 36.2541 13.4823 36.5398 12.6431C36.8256 11.7954 37.2458 11.0611 37.8005 10.44C38.3552 9.81896 39.0402 9.33638 39.8555 8.99229C40.6707 8.6398 41.612 8.46356 42.6794 8.46356C43.7552 8.46356 44.7007 8.6398 45.516 8.99229C46.3396 9.33638 47.0288 9.81896 47.5835 10.44C48.1382 11.0611 48.5585 11.7954 48.8442 12.6431C49.13 13.4823 49.2728 14.4013 49.2728 15.4V15.6644C49.2728 16.6547 49.13 17.5737 48.8442 18.4213C48.5585 19.2606 48.1382 19.9949 47.5835 20.6244C47.0288 21.2454 46.3438 21.728 45.5286 22.0721C44.7133 22.4162 43.772 22.5882 42.7046 22.5882C41.6372 22.5882 40.6917 22.4162 39.8681 22.0721C39.0444 21.728 38.3552 21.2454 37.8005 20.6244C37.2458 19.9949 36.8256 19.2606 36.5398 18.4213C36.2541 17.5737 36.1112 16.6547 36.1112 15.6644ZM40.3597 15.4V15.6644C40.3597 16.1763 40.3976 16.6547 40.4732 17.0995C40.5489 17.5443 40.6749 17.9346 40.8514 18.2703C41.0279 18.5976 41.2674 18.8535 41.57 19.0382C41.8726 19.2228 42.2508 19.3151 42.7046 19.3151C43.1501 19.3151 43.5199 19.2228 43.814 19.0382C44.1166 18.8535 44.3561 18.5976 44.5326 18.2703C44.7091 17.9346 44.8352 17.5443 44.9108 17.0995C44.9865 16.6547 45.0243 16.1763 45.0243 15.6644V15.4C45.0243 14.9048 44.9865 14.4391 44.9108 14.0026C44.8352 13.5578 44.7091 13.1676 44.5326 12.8319C44.3561 12.4878 44.1166 12.2192 43.814 12.0262C43.5115 11.8332 43.1333 11.7367 42.6794 11.7367C42.234 11.7367 41.86 11.8332 41.5574 12.0262C41.2632 12.2192 41.0279 12.4878 40.8514 12.8319C40.6749 13.1676 40.5489 13.5578 40.4732 14.0026C40.3976 14.4391 40.3597 14.9048 40.3597 15.4Z" fill="white"/>
<path d="M50.6344 15.6644V15.4C50.6344 14.4013 50.7773 13.4823 51.063 12.6431C51.3488 11.7954 51.769 11.0611 52.3237 10.44C52.8784 9.81896 53.5634 9.33638 54.3787 8.99229C55.1939 8.6398 56.1352 8.46356 57.2026 8.46356C58.2784 8.46356 59.2239 8.6398 60.0392 8.99229C60.8628 9.33638 61.552 9.81896 62.1067 10.44C62.6614 11.0611 63.0816 11.7954 63.3674 12.6431C63.6532 13.4823 63.796 14.4013 63.796 15.4V15.6644C63.796 16.6547 63.6532 17.5737 63.3674 18.4213C63.0816 19.2606 62.6614 19.9949 62.1067 20.6244C61.552 21.2454 60.867 21.728 60.0518 22.0721C59.2365 22.4162 58.2952 22.5882 57.2278 22.5882C56.1604 22.5882 55.2149 22.4162 54.3913 22.0721C53.5676 21.728 52.8784 21.2454 52.3237 20.6244C51.769 19.9949 51.3488 19.2606 51.063 18.4213C50.7773 17.5737 50.6344 16.6547 50.6344 15.6644ZM54.8829 15.4V15.6644C54.8829 16.1763 54.9208 16.6547 54.9964 17.0995C55.072 17.5443 55.1981 17.9346 55.3746 18.2703C55.5511 18.5976 55.7906 18.8535 56.0932 19.0382C56.3958 19.2228 56.774 19.3151 57.2278 19.3151C57.6733 19.3151 58.0431 19.2228 58.3372 19.0382C58.6398 18.8535 58.8793 18.5976 59.0558 18.2703C59.2323 17.9346 59.3584 17.5443 59.434 17.0995C59.5097 16.6547 59.5475 16.1763 59.5475 15.6644V15.4C59.5475 14.9048 59.5097 14.4391 59.434 14.0026C59.3584 13.5578 59.2323 13.1676 59.0558 12.8319C58.8793 12.4878 58.6398 12.2192 58.3372 12.0262C58.0347 11.8332 57.6565 11.7367 57.2026 11.7367C56.7572 11.7367 56.3832 11.8332 56.0806 12.0262C55.7864 12.2192 55.5511 12.4878 55.3746 12.8319C55.1981 13.1676 55.072 13.5578 54.9964 14.0026C54.9208 14.4391 54.8829 14.9048 54.8829 15.4Z" fill="white"/>
<path d="M73.5286 19.2144V3H77.8023V22.3365H73.9698L73.5286 19.2144ZM65.1576 15.6896V15.4252C65.1576 14.3929 65.271 13.4529 65.498 12.6053C65.7249 11.7492 66.0611 11.0149 66.5065 10.4022C66.952 9.78119 67.5067 9.30281 68.1706 8.96711C68.8346 8.63141 69.5994 8.46356 70.4651 8.46356C71.2383 8.46356 71.9149 8.644 72.4948 9.00488C73.0747 9.35736 73.5706 9.85253 73.9824 10.4904C74.3943 11.1282 74.7304 11.8751 74.991 12.7312C75.2515 13.5788 75.449 14.4936 75.5835 15.4755V15.7903C75.449 16.7134 75.2515 17.5863 74.991 18.4087C74.7304 19.2228 74.3943 19.9446 73.9824 20.574C73.5706 21.2035 73.0705 21.6986 72.4822 22.0595C71.9023 22.412 71.2215 22.5882 70.4399 22.5882C69.5742 22.5882 68.8094 22.4162 68.1454 22.0721C67.4899 21.728 66.9394 21.2454 66.4939 20.6244C66.0569 20.0033 65.7249 19.2732 65.498 18.4339C65.271 17.5947 65.1576 16.6799 65.1576 15.6896ZM69.4061 15.4252V15.6896C69.4061 16.2015 69.4397 16.6757 69.507 17.1121C69.5742 17.5485 69.6877 17.9346 69.8474 18.2703C70.0155 18.5976 70.234 18.8535 70.5029 19.0382C70.7803 19.2228 71.1207 19.3151 71.5241 19.3151C72.0704 19.3151 72.52 19.1851 72.873 18.9249C73.2344 18.6647 73.4992 18.2954 73.6673 17.8171C73.8438 17.3387 73.9194 16.7764 73.8942 16.1302V15.1356C73.911 14.5817 73.8732 14.095 73.7807 13.6753C73.6883 13.2473 73.5412 12.8906 73.3395 12.6053C73.1462 12.3199 72.8982 12.1059 72.5957 11.9633C72.3015 11.8122 71.9527 11.7367 71.5493 11.7367C71.1543 11.7367 70.8181 11.829 70.5407 12.0136C70.2718 12.1982 70.0533 12.4584 69.8852 12.7941C69.7171 13.1214 69.5952 13.5117 69.5196 13.9649C69.4439 14.4097 69.4061 14.8965 69.4061 15.4252Z" fill="white"/>
<path d="M89.2999 4.00711V22.3365H84.8748V4.00711H89.2999ZM94.8217 4.00711V7.41868H79.4791V4.00711H94.8217Z" fill="white"/>
<path d="M101.97 22.5882C100.86 22.5882 99.8687 22.4162 98.9946 22.0721C98.1205 21.7196 97.3809 21.237 96.7758 20.6244C96.179 20.0117 95.721 19.3067 95.4016 18.5095C95.0906 17.7122 94.9352 16.8687 94.9352 15.9791V15.5007C94.9352 14.502 95.0738 13.5788 95.3512 12.7312C95.6285 11.8751 96.0404 11.1282 96.5867 10.4904C97.133 9.85253 97.8179 9.35736 98.6416 9.00488C99.4652 8.644 100.423 8.46356 101.516 8.46356C102.483 8.46356 103.348 8.61882 104.113 8.92934C104.878 9.23987 105.525 9.68467 106.054 10.2638C106.592 10.8428 107 11.5436 107.277 12.3661C107.563 13.1886 107.706 14.1117 107.706 15.1356V16.8603H96.5615V14.2041H103.558V13.8768C103.567 13.4236 103.487 13.0375 103.319 12.7186C103.159 12.3997 102.924 12.1563 102.613 11.9884C102.302 11.8206 101.924 11.7367 101.478 11.7367C101.016 11.7367 100.633 11.8374 100.331 12.0388C100.037 12.2402 99.8056 12.5172 99.6375 12.8697C99.4779 13.2137 99.3644 13.6124 99.2972 14.0656C99.2299 14.5188 99.1963 14.9972 99.1963 15.5007V15.9791C99.1963 16.4826 99.2635 16.94 99.398 17.3513C99.5409 17.7625 99.7426 18.115 100.003 18.4087C100.272 18.6941 100.591 18.9165 100.961 19.0759C101.339 19.2354 101.768 19.3151 102.247 19.3151C102.827 19.3151 103.399 19.206 103.962 18.9878C104.525 18.7696 105.008 18.4087 105.412 17.9052L107.34 20.1964C107.063 20.5908 106.668 20.9727 106.155 21.3419C105.651 21.7112 105.046 22.0133 104.34 22.2483C103.634 22.4749 102.844 22.5882 101.97 22.5882Z" fill="white"/>
<path d="M115.194 19.3151C115.59 19.3151 115.926 19.2438 116.203 19.1011C116.489 18.9501 116.703 18.7402 116.846 18.4717C116.997 18.1947 117.069 17.8632 117.06 17.4772H121.057C121.065 18.5011 120.813 19.3991 120.3 20.1712C119.796 20.9349 119.107 21.5308 118.233 21.9588C117.367 22.3784 116.388 22.5882 115.295 22.5882C114.228 22.5882 113.295 22.4162 112.497 22.0721C111.698 21.7196 111.03 21.2328 110.492 20.6118C109.963 19.9823 109.563 19.248 109.294 18.4087C109.034 17.5695 108.904 16.6589 108.904 15.677V15.3874C108.904 14.4055 109.034 13.4949 109.294 12.6556C109.563 11.808 109.963 11.0736 110.492 10.4526C111.03 9.82315 111.694 9.33638 112.484 8.99229C113.282 8.6398 114.211 8.46356 115.27 8.46356C116.405 8.46356 117.405 8.67757 118.271 9.10559C119.145 9.53361 119.83 10.1547 120.326 10.9687C120.821 11.7828 121.065 12.7689 121.057 13.9271H117.06C117.069 13.5159 117.006 13.1466 116.871 12.8193C116.737 12.492 116.527 12.2318 116.241 12.0388C115.964 11.8374 115.606 11.7367 115.169 11.7367C114.732 11.7367 114.379 11.8332 114.11 12.0262C113.841 12.2192 113.635 12.4878 113.493 12.8319C113.358 13.1676 113.266 13.5536 113.215 13.9901C113.173 14.4265 113.152 14.8923 113.152 15.3874V15.677C113.152 16.1805 113.173 16.6547 113.215 17.0995C113.266 17.5359 113.362 17.922 113.505 18.2577C113.648 18.585 113.854 18.8452 114.123 19.0382C114.392 19.2228 114.749 19.3151 115.194 19.3151Z" fill="white"/>
<path d="M127.032 3V22.3365H122.784V3H127.032ZM126.528 15.0601L125.532 15.0853C125.532 14.1285 125.65 13.2473 125.885 12.4416C126.121 11.6359 126.457 10.9352 126.894 10.3393C127.331 9.74342 127.856 9.28183 128.47 8.95452C129.083 8.62721 129.764 8.46356 130.512 8.46356C131.184 8.46356 131.798 8.56007 132.353 8.7531C132.916 8.94613 133.399 9.25665 133.802 9.68467C134.214 10.1127 134.529 10.6708 134.748 11.359C134.975 12.0472 135.088 12.8864 135.088 13.8768V22.3365H130.814V13.8516C130.814 13.2977 130.735 12.8697 130.575 12.5675C130.424 12.257 130.205 12.043 129.919 11.9255C129.634 11.7996 129.285 11.7367 128.873 11.7367C128.377 11.7367 127.974 11.8206 127.663 11.9884C127.352 12.1563 127.112 12.3913 126.944 12.6934C126.784 12.9871 126.675 13.3354 126.616 13.7383C126.558 14.1411 126.528 14.5817 126.528 15.0601Z" fill="white"/>
<path d="M11.3036 17.4976H2.02398C1.45481 17.4976 0.993164 17.8652 0.993164 18.3188V18.3428C0.993164 18.7964 1.45464 19.1637 2.02398 19.1637H11.3036C11.8731 19.1637 12.3348 18.7964 12.3348 18.3428V18.3188C12.3347 17.8652 11.8731 17.4976 11.3036 17.4976Z" fill="white"/>
<path d="M3.28914 12.7373C3.12563 12.7373 2.99316 12.8699 2.99316 13.0334C2.99316 13.1973 3.12563 13.3298 3.28914 13.3298C3.45298 13.3298 3.58575 13.1973 3.58575 13.0334C3.5858 12.8699 3.45298 12.7373 3.28914 12.7373Z" fill="white"/>
<path d="M5.51136 12.7373C5.34767 12.7373 5.21484 12.8699 5.21484 13.0334C5.21484 13.1973 5.34767 13.3298 5.51136 13.3298C5.67483 13.3298 5.80748 13.1973 5.80748 13.0334C5.80748 12.8699 5.67483 12.7373 5.51136 12.7373Z" fill="white"/>
<path d="M4.47483 11.8486C4.31118 11.8486 4.17871 11.9809 4.17871 12.1447C4.17871 12.3086 4.31118 12.4412 4.47483 12.4412C4.63834 12.4412 4.77094 12.3086 4.77094 12.1447C4.77094 11.9809 4.63834 11.8486 4.47483 11.8486Z" fill="white"/>
<path d="M6.10449 11.7751C6.10449 11.9386 6.23714 12.0709 6.40065 12.0709C6.5643 12.0709 6.69695 11.9386 6.69695 11.7751C6.69695 11.6113 6.5643 11.479 6.40065 11.479C6.23714 11.479 6.10449 11.6113 6.10449 11.7751Z" fill="white"/>
<path d="M7.51109 13.4041C7.6751 13.4041 7.80757 13.2715 7.80757 13.1076C7.80757 12.9441 7.6751 12.8115 7.51109 12.8115C7.34762 12.8115 7.21484 12.9441 7.21484 13.1076C7.2148 13.2715 7.34758 13.4041 7.51109 13.4041Z" fill="white"/>
<path d="M8.47421 12.4382C8.63772 12.4382 8.77014 12.3052 8.77014 12.1414C8.77014 11.9779 8.63768 11.8452 8.47421 11.8452C8.31056 11.8452 8.17773 11.9779 8.17773 12.1414C8.17773 12.3052 8.31056 12.4382 8.47421 12.4382Z" fill="white"/>
<path d="M9.9545 13.4041C10.118 13.4041 10.2508 13.2715 10.2508 13.1076C10.2508 12.9441 10.118 12.8115 9.9545 12.8115C9.79116 12.8115 9.6582 12.9441 9.6582 13.1076C9.6582 13.2715 9.79116 13.4041 9.9545 13.4041Z" fill="white"/>
<path d="M12.4291 16.3871C12.4608 16.3779 12.4972 16.3718 12.5469 16.3718C12.7511 16.3718 12.9168 16.2064 12.9168 16.0018C12.9168 15.7972 12.7511 15.6314 12.5468 15.6314C12.4163 15.6314 12.2927 15.6514 12.1809 15.6884C12.0832 15.7209 11.995 15.766 11.9187 15.8169C11.7849 15.9061 11.6855 16.0096 11.6031 16.1028C11.5412 16.1731 11.4881 16.2385 11.4394 16.2935C11.3672 16.377 11.3053 16.4346 11.25 16.4678C11.222 16.4841 11.1955 16.4963 11.1641 16.5051C11.133 16.514 11.096 16.5201 11.0468 16.5201C10.9896 16.5201 10.9491 16.5123 10.9143 16.5007C10.884 16.4909 10.8572 16.4773 10.8284 16.4584C10.7783 16.4258 10.7225 16.3722 10.6584 16.2993C10.6104 16.245 10.5579 16.1802 10.4966 16.1097C10.4048 16.0058 10.2924 15.8871 10.1335 15.7908C10.0545 15.7426 9.96424 15.7019 9.86503 15.6738C9.76613 15.6459 9.65897 15.6314 9.54688 15.6314C9.41648 15.6314 9.29299 15.651 9.18108 15.6883C9.08321 15.7209 8.99535 15.766 8.91902 15.8169C8.78472 15.9061 8.68568 16.0095 8.60339 16.1028C8.54115 16.173 8.48842 16.2385 8.43956 16.2935C8.36682 16.3769 8.30575 16.4345 8.25028 16.4678C8.22215 16.4841 8.19567 16.4963 8.16449 16.5051C8.1333 16.5139 8.09615 16.52 8.04692 16.52C7.98962 16.52 7.94928 16.5122 7.91464 16.5007C7.88412 16.4905 7.85729 16.477 7.82848 16.4583C7.77881 16.4257 7.72316 16.3722 7.65891 16.2992C7.61053 16.2449 7.5583 16.1801 7.4971 16.1103C7.40538 16.0058 7.29257 15.8871 7.13416 15.7908C7.05496 15.7426 6.96491 15.7019 6.86556 15.6738C6.76666 15.6459 6.65932 15.631 6.54741 15.6314C6.41701 15.631 6.29334 15.651 6.18174 15.6883C6.0841 15.7205 5.99606 15.7657 5.91941 15.8169C5.7856 15.9061 5.68639 16.0092 5.6036 16.1028C5.54186 16.173 5.48927 16.2385 5.44058 16.2935C5.36784 16.3769 5.30609 16.4345 5.25099 16.4678C5.22317 16.4841 5.19674 16.4963 5.16537 16.5051C5.13365 16.5139 5.09685 16.52 5.04767 16.52C4.99032 16.52 4.94998 16.5122 4.91521 16.5007C4.88501 16.4905 4.85804 16.477 4.82959 16.458C4.77951 16.4257 4.72405 16.3721 4.65961 16.2992C4.61124 16.2446 4.55901 16.1798 4.4978 16.1103C4.40604 16.0058 4.29327 15.8871 4.13451 15.7908C4.05581 15.7426 3.96543 15.7019 3.86653 15.6738C3.76732 15.6459 3.66016 15.631 3.54803 15.6314C3.41763 15.631 3.29432 15.651 3.18222 15.6883C3.08454 15.7205 2.99685 15.7657 2.92035 15.8165C2.78618 15.9061 2.68732 16.0092 2.6044 16.1028C2.54247 16.1731 2.48975 16.2385 2.44142 16.2935C2.36864 16.377 2.30711 16.4346 2.25179 16.4678C2.22379 16.4841 2.19731 16.4963 2.16594 16.5051C2.1344 16.514 2.09778 16.5197 2.0486 16.5201C1.99112 16.5197 1.95091 16.5123 1.91596 16.5007C1.8858 16.4905 1.85879 16.477 1.8303 16.458C1.7804 16.4254 1.72449 16.3725 1.66068 16.2993C1.61235 16.2446 1.55976 16.1799 1.49855 16.11C1.40697 16.0059 1.29402 15.8871 1.13562 15.7908C1.05674 15.7426 0.966541 15.7019 0.867283 15.6738C0.768428 15.6459 0.661048 15.631 0.548776 15.6314C0.34456 15.6314 0.178711 15.7972 0.178711 16.0017C0.178711 16.2063 0.34456 16.3718 0.548776 16.3718C0.606483 16.3718 0.646823 16.38 0.681241 16.3911C0.711754 16.4016 0.738409 16.4149 0.767217 16.4339C0.816936 16.4664 0.872578 16.5193 0.937015 16.5927C0.985029 16.6469 1.03762 16.712 1.09865 16.7819C1.19059 16.8861 1.30318 17.0048 1.46162 17.1014C1.54064 17.1493 1.63106 17.19 1.73005 17.2178C1.82895 17.2459 1.93615 17.2605 2.04856 17.2605C2.17864 17.2609 2.30209 17.2408 2.41405 17.2039C2.51169 17.1709 2.59973 17.1262 2.67592 17.0753C2.81005 16.9861 2.90926 16.882 2.99201 16.789C3.05375 16.7188 3.10666 16.6536 3.15516 16.598C3.22795 16.5149 3.28915 16.4572 3.34462 16.424C3.37257 16.4077 3.39887 16.3955 3.43059 16.3867C3.46182 16.3779 3.49844 16.3718 3.54816 16.3718C3.60528 16.3718 3.64571 16.3799 3.68044 16.3911C3.7106 16.4016 3.73757 16.4149 3.76624 16.4339C3.81632 16.4664 3.87192 16.5193 3.93604 16.5926C3.98405 16.6469 4.0366 16.712 4.09785 16.7819C4.1898 16.886 4.30238 17.0047 4.46096 17.1014C4.54003 17.1496 4.63022 17.1899 4.72912 17.2177C4.82833 17.2459 4.93554 17.2605 5.04763 17.2605C5.17771 17.2608 5.30152 17.2408 5.41312 17.2038C5.51116 17.1709 5.59898 17.1261 5.67531 17.0752C5.80943 16.986 5.90869 16.8819 5.99094 16.7889C6.05318 16.7188 6.10595 16.6536 6.15464 16.598C6.22742 16.5149 6.28876 16.4572 6.34409 16.4239C6.37191 16.4077 6.39852 16.3955 6.42993 16.3867C6.46112 16.3779 6.49796 16.3717 6.54759 16.3717C6.60476 16.3717 6.64514 16.3799 6.67951 16.391C6.71003 16.4015 6.73704 16.4148 6.76571 16.4338C6.81539 16.4663 6.87117 16.5193 6.93542 16.5926C6.98362 16.6468 7.03621 16.7119 7.09723 16.7818C7.18913 16.886 7.30177 17.0047 7.46035 17.1013C7.53937 17.1495 7.6296 17.1899 7.72864 17.2177C7.8279 17.2458 7.93487 17.2604 8.04715 17.2604C8.17723 17.2608 8.30086 17.2408 8.4125 17.2038C8.5105 17.1708 8.59836 17.1261 8.67487 17.0752C8.80886 16.986 8.90825 16.8819 8.99051 16.7889C9.05243 16.7187 9.10533 16.6536 9.15384 16.5979C9.22645 16.5149 9.28819 16.4571 9.34365 16.4239C9.3713 16.4077 9.3979 16.3954 9.42927 16.3866C9.46082 16.3778 9.49748 16.3717 9.54697 16.3717C9.60414 16.3717 9.64435 16.3798 9.67926 16.391C9.70946 16.4015 9.7366 16.4148 9.76492 16.4338C9.81513 16.4663 9.87055 16.5192 9.93503 16.5925C9.98336 16.6468 10.0356 16.7122 10.0972 16.7818C10.1887 16.8863 10.3015 17.0046 10.4599 17.1013C10.5389 17.1495 10.6292 17.1898 10.7284 17.2177C10.8274 17.2458 10.9348 17.2607 11.0469 17.2607C11.1772 17.2607 11.301 17.2407 11.4122 17.2037C11.5101 17.1712 11.5982 17.126 11.6746 17.0751C11.8087 16.9859 11.9081 16.8818 11.9904 16.7888C12.0521 16.7187 12.1052 16.6535 12.1535 16.5979C12.2263 16.5148 12.2878 16.4571 12.3431 16.4239C12.3711 16.4078 12.3974 16.3956 12.4291 16.3871Z" fill="white"/>
<path d="M20.7683 5.39797H17.4638L18.1573 2.20886L20.5853 0.799139L20.1214 0L17.3407 1.61457L16.5181 5.39797H9.10109L9.4883 10.4418C8.6113 10.1091 7.62087 9.91643 6.5717 9.91643C4.93847 9.91715 3.44784 10.3811 2.30457 11.1202C1.73285 11.4903 1.24715 11.9299 0.876724 12.4221C0.590077 12.803 0.373341 13.2168 0.244826 13.652H0.218889L0.154273 14.0376C0.152388 14.0495 0.150907 14.0566 0.150055 14.0604L0.149696 14.0624C0.148035 14.0664 0.144445 14.0766 0.139195 14.0943C0.1339 14.1116 0.127798 14.1353 0.123759 14.158C0.117342 14.1923 0.114426 14.2231 0.113079 14.2506C0.111554 14.2785 0.111015 14.3046 0.111015 14.3351C0.111374 14.4833 0.131522 14.6288 0.180748 14.7682C0.217364 14.8724 0.271121 14.9724 0.341706 15.0603C0.446843 15.1932 0.589448 15.2953 0.741432 15.3557C0.89409 15.4171 1.05437 15.4415 1.21601 15.4415H11.927C12.0708 15.4415 12.2131 15.4222 12.3505 15.375C12.4531 15.3394 12.5528 15.2875 12.6413 15.2186C12.775 15.1156 12.8794 14.9738 12.9424 14.8201C13.006 14.6654 13.0318 14.5016 13.0318 14.335C13.0316 14.2919 13.0311 14.2576 13.0274 14.2153C13.0245 14.184 13.0177 14.1444 13.0089 14.1114C13.0021 14.0867 12.9958 14.0697 12.9939 14.0636L12.9934 14.062C12.9929 14.0599 12.9912 14.0534 12.9887 14.0375C12.8922 13.4605 12.6364 12.9138 12.2667 12.4219C11.8142 11.8219 11.1918 11.2989 10.4495 10.8864L10.0991 6.32212H19.7704L18.7125 20.1H12.7675C12.662 19.9826 12.5275 19.8829 12.3733 19.8178C12.2138 19.7496 12.0375 19.7178 11.8557 19.7181H1.29009C1.0747 19.7174 0.866448 19.7629 0.686015 19.8588C0.550813 19.9301 0.434144 20.0281 0.342559 20.1394C0.20453 20.3066 0.120887 20.4982 0.0700016 20.6926C0.0194749 20.8876 0.000179627 21.0881 1.36331e-07 21.291V21.4019C-0.000179355 21.8347 0.176888 22.2309 0.460798 22.5141C0.743855 22.798 1.14004 22.9751 1.57288 22.9748H11.5704C12.0032 22.9752 12.3992 22.7981 12.6824 22.5141C12.9663 22.2309 13.1434 21.8348 13.1432 21.4019V21.291C13.1432 21.2014 13.1393 21.1122 13.131 21.024H19.5681L20.7683 5.39797ZM10.3366 11.8956C10.828 12.2135 11.2326 12.5849 11.5281 12.9777C11.8237 13.3708 12.0092 13.7829 12.0772 14.1903C12.0852 14.2378 12.094 14.2789 12.104 14.3145C12.1054 14.3183 12.1066 14.3219 12.1074 14.3257C12.1074 14.3291 12.1078 14.3311 12.1078 14.3352C12.1078 14.3983 12.0986 14.4383 12.0912 14.4597C12.0853 14.4759 12.0809 14.4817 12.0786 14.4844C12.0749 14.4885 12.0756 14.4898 12.0557 14.499C12.0364 14.5068 11.9947 14.5177 11.927 14.5177H1.21596C1.15556 14.5177 1.11607 14.5092 1.09454 14.5014C1.07807 14.496 1.07179 14.4916 1.06873 14.4892C1.06483 14.4851 1.0633 14.4861 1.05464 14.4672C1.04787 14.4512 1.03921 14.418 1.03634 14.3667L1.06582 14.1904C1.13384 13.783 1.31939 13.3709 1.61501 12.9777C2.05764 12.3882 2.74828 11.8486 3.60458 11.4622C4.46057 11.0752 5.47919 10.8401 6.5717 10.8404C8.02809 10.8397 9.35399 11.259 10.3366 11.8956ZM12.219 21.402C12.2188 21.5824 12.1471 21.7419 12.0291 21.8606C11.9102 21.979 11.7508 22.0506 11.5703 22.0509H1.57279C1.392 22.0506 1.23292 21.979 1.11419 21.8606C0.995995 21.7419 0.924244 21.5825 0.924064 21.402V21.2911C0.924064 21.1645 0.935597 21.0509 0.955969 20.9593C0.971405 20.8908 0.991418 20.8349 1.0126 20.7938C1.02835 20.7626 1.04446 20.7399 1.05958 20.7226C1.08296 20.6965 1.10266 20.6822 1.1342 20.6683C1.16575 20.6547 1.21309 20.6426 1.29005 20.6422H11.8557C11.9476 20.6426 11.9956 20.6592 12.0273 20.6758C12.0512 20.689 12.0691 20.7029 12.0897 20.7277C12.1196 20.7636 12.1542 20.8277 12.1791 20.9254C12.2046 21.0218 12.2193 21.1486 12.219 21.2911L12.219 21.402Z" fill="white"/>
<path d="M15.5485 15.2054L14.5389 15.4643L14.8217 16.5536M17.2338 16.1139L17.5725 17.0995L16.507 17.4621M17.0916 15.1672L14.9639 17.5003M14.0396 8.55177C14.392 8.55177 14.6777 8.26604 14.6777 7.91358C14.6777 7.56112 14.392 7.27539 14.0396 7.27539C13.6871 7.27539 13.4014 7.56112 13.4014 7.91358C13.4014 8.26604 13.6871 8.55177 14.0396 8.55177ZM14.0396 8.55177V10.594M14.0396 10.594C13.6871 10.594 13.4014 10.8797 13.4014 11.2322C13.4014 11.5846 13.6871 11.8704 14.0396 11.8704C14.392 11.8704 14.6777 11.5846 14.6777 11.2322C14.6777 10.8797 14.392 10.594 14.0396 10.594ZM17.3581 10.594V8.73046C17.3581 8.44453 17.3581 8.30156 17.3025 8.19235C17.2536 8.09628 17.1754 8.01817 17.0794 7.96923C16.9702 7.91358 16.8272 7.91358 16.5413 7.91358H15.6989M17.3581 10.594C17.7106 10.594 17.9963 10.8797 17.9963 11.2322C17.9963 11.5846 17.7106 11.8704 17.3581 11.8704C17.0057 11.8704 16.72 11.5846 16.72 11.2322C16.72 10.8797 17.0057 10.594 17.3581 10.594ZM15.6989 7.91358L16.337 8.55177M15.6989 7.91358L16.337 7.27539" stroke="white" stroke-linecap="round" stroke-linejoin="round"/>
</svg>
