<svg id="Bonus" xmlns="http://www.w3.org/2000/svg" width="62.5" height="57.812" viewBox="0 0 62.5 57.812">
  <path id="Union_10" data-name="Union 10" d="M14.965,51.8a1.763,1.763,0,0,1-.982-1.733c.007-3.174,0-6.352,0-9.528v-.68c-.226,0-.436.007-.645,0a37.412,37.412,0,0,1-4.892-.238A10.273,10.273,0,0,1,.019,29.574v0Q0,29.264,0,28.955c0-.183,0-.364.015-.545q-.03-8.889,0-17.774Q0,10.342,0,10.045A10.085,10.085,0,0,1,10.128,0c.2,0,.407.006.607.018Q28-.019,45.262.018c.2-.012.406-.018.611-.018A10.047,10.047,0,0,1,55.9,11.437V27.563a10.082,10.082,0,0,1,0,2.784v.2c-.1.453-.193.909-.3,1.36a10.421,10.421,0,0,1-10.113,7.947c-5.421.028-10.843.012-16.264,0a1.213,1.213,0,0,0-.945.4Q22.715,45.8,17.13,51.32a2,2,0,0,1-1.4.68A1.69,1.69,0,0,1,14.965,51.8Z" transform="translate(6 5.312)" fill="#e6662c" stroke="rgba(0,0,0,0)" stroke-miterlimit="10" stroke-width="1"/>
  <path id="Path_8937" data-name="Path 8937" d="M55.659,30.665c-.1.455-.191.912-.3,1.365A10.394,10.394,0,0,1,45.29,40.007c-5.4.026-10.8.011-16.194,0a1.2,1.2,0,0,0-.942.4q-5.54,5.566-11.1,11.112A1.732,1.732,0,0,1,14.9,52a1.772,1.772,0,0,1-.978-1.739q.011-4.783,0-9.566v-.682c-.226,0-.434.007-.642,0a36.372,36.372,0,0,1-4.869-.24A10.288,10.288,0,0,1,.02,29.685q-.037-9.674,0-19.349A10.386,10.386,0,0,1,10.349.019q17.5-.039,35,0A10.392,10.392,0,0,1,55.561,9.058a1.714,1.714,0,0,0,.1.3ZM17.411,46.1l.15.084a5.5,5.5,0,0,1,.376-.465q4.414-4.423,8.829-8.846a1.089,1.089,0,0,1,.853-.347q8.775.014,17.55,0a6.94,6.94,0,0,0,7.009-7q.017-9.51,0-19.02A6.942,6.942,0,0,0,45.142,3.49q-17.278-.008-34.556,0a6.955,6.955,0,0,0-7.094,7.077q-.008,9.456,0,18.912a6.951,6.951,0,0,0,7.062,7.055c2.083.007,4.165,0,6.248,0h.607Z" transform="translate(0 0)"/>
  <path id="Path_8938" data-name="Path 8938" d="M179.138,103.777h2.1c1.3,0,2.607-.008,3.91,0a1.738,1.738,0,1,1,.008,3.473c-1.792.011-3.584,0-5.377,0h-.644v.842c0,1.7,0,3.4,0,5.106a1.743,1.743,0,1,1-3.475-.022c0-1.952,0-3.9,0-5.926h-.613c-1.774,0-3.548,0-5.322,0a1.744,1.744,0,1,1-.005-3.476c1.953,0,3.907,0,5.94,0v-.6q0-2.635,0-5.269a1.752,1.752,0,1,1,3.477.021q0,2.635,0,5.269v.578" transform="translate(-149.564 -85.505)"/>
</svg>
